<?xml version="1.0" encoding="UTF-8"?><!DOCTYPE svg PUBLIC "-//W3C//DTD SVG 1.1//EN" "http://www.w3.org/Graphics/SVG/1.1/DTD/svg11.dtd"><svg xmlns="http://www.w3.org/2000/svg" xmlns:xlink="http://www.w3.org/1999/xlink"><defs><clipPath id="a"><path d="M0 0h417v323.8H0z"/></clipPath></defs><symbol id="icon-arrow"><path d="M0 10.07L9.004 19 18 10.07l-1.247-1.245-6.864 6.814V0h-1.77v15.639L1.253 8.825 0 10.07z"/></symbol><symbol id="icon-done" viewBox="0 0 417 323.79"><g clip-path="url(#a)"><path d="M159.67 317.56a21.29 21.29 0 01-30.1 0L9.35 197.32a31.92 31.92 0 010-45.15l15.06-15.06a31.92 31.92 0 0145.16 0l75.05 75.06L347.43 9.36a31.92 31.92 0 0145.16 0l15.05 15.06a31.9 31.9 0 010 45.15z"/></g></symbol><symbol id="icon-email" viewBox="0 0 128 128"><title/><path d="M116.73,31.83a3,3,0,0,0-4.2-.61L64.14,67.34a1,1,0,0,1-1.2,0L15.5,31.06a3,3,0,1,0-3.64,4.77L49.16,64.36,12.27,92.16A3,3,0,1,0,15.88,97L54.11,68.14l5.18,4a7,7,0,0,0,8.43.06l5.44-4.06L111.84,97a3,3,0,1,0,3.59-4.81L78.17,64.35,116.12,36A3,3,0,0,0,116.73,31.83Z"/><path d="M113,19H15A15,15,0,0,0,0,34V94a15,15,0,0,0,15,15h98a15,15,0,0,0,15-15V34A15,15,0,0,0,113,19Zm9,75a9,9,0,0,1-9,9H15a9,9,0,0,1-9-9V34a9,9,0,0,1,9-9h98a9,9,0,0,1,9,9Z"/></symbol><symbol id="icon-faq-arrow" viewBox="0 0 443.52 443.52"><path d="M221.657 143.492l192.734 192.734c6.664 6.663 17.468 6.663 24.132 0 6.662-6.665 6.662-17.468 0-24.132l-204.8-204.8c-6.664-6.662-17.468-6.662-24.132 0l-204.8 204.8c-6.548 6.78-6.36 17.584.42 24.132 6.614 6.387 17.1 6.387 23.712 0l192.734-192.734z" data-original="#000000" xmlns="http://www.w3.org/2000/svg"/></symbol><symbol id="icon-location" viewBox="0 0 315 315"><g style="enable-background:new 0 0 315 315;">
<g>
	<g>
		<g>
			<path d="M157.5,0C93.319,0,41.103,52.215,41.103,116.397c0,62.138,106.113,190.466,110.63,195.898
				c1.425,1.713,3.538,2.705,5.767,2.705c2.228,0,4.342-0.991,5.767-2.705c4.518-5.433,110.63-133.76,110.63-195.898
				C273.897,52.215,221.682,0,157.5,0z M157.5,295.598c-9.409-11.749-28.958-36.781-48.303-65.397
				c-34.734-51.379-53.094-90.732-53.094-113.804C56.103,60.486,101.59,15,157.5,15c55.91,0,101.397,45.486,101.397,101.397
				c0,23.071-18.359,62.424-53.094,113.804C186.457,258.817,166.909,283.849,157.5,295.598z"/>
			<path d="M195.657,213.956c-3.432-2.319-8.095-1.415-10.413,2.017c-10.121,14.982-21.459,30.684-33.699,46.67
				c-2.518,3.289-1.894,7.996,1.395,10.514c1.36,1.042,2.963,1.546,4.554,1.546c2.254,0,4.484-1.013,5.96-2.941
				c12.42-16.22,23.933-32.165,34.219-47.392C199.992,220.938,199.09,216.275,195.657,213.956z"/>
			<path d="M157.5,57.5C123.589,57.5,96,85.089,96,119s27.589,61.5,61.5,61.5S219,152.911,219,119S191.411,57.5,157.5,57.5z
				 M157.5,165.5c-25.64,0-46.5-20.86-46.5-46.5s20.86-46.5,46.5-46.5c25.641,0,46.5,20.86,46.5,46.5S183.141,165.5,157.5,165.5z"/>
		</g>
	</g>
</g>
<g>
</g>
<g>
</g>
<g>
</g>
<g>
</g>
<g>
</g>
<g>
</g>
<g>
</g>
<g>
</g>
<g>
</g>
<g>
</g>
<g>
</g>
<g>
</g>
<g>
</g>
<g>
</g>
<g>
</g>
</g></symbol><symbol id="icon-phone" viewBox="0 0 477.156 477.156"><g style="enable-background:new 0 0 477.156 477.156;">
<g>
	<path d="M475.009,380.316l-2.375-7.156c-5.625-16.719-24.062-34.156-41-38.75l-62.688-17.125c-17-4.625-41.25,1.594-53.688,14.031
		l-22.688,22.688c-82.453-22.28-147.109-86.938-169.359-169.375L145.9,161.94c12.438-12.438,18.656-36.656,14.031-53.656
		l-17.094-62.719c-4.625-16.969-22.094-35.406-38.781-40.969L96.9,2.19c-16.719-5.563-40.563,0.063-53,12.5L9.962,48.659
		C3.899,54.69,0.024,71.94,0.024,72.003c-1.187,107.75,41.063,211.562,117.281,287.781
		c76.031,76.031,179.454,118.219,286.891,117.313c0.562,0,18.312-3.813,24.375-9.845l33.938-33.938
		C474.946,420.878,480.571,397.035,475.009,380.316z"/>
</g>
<g>
</g>
<g>
</g>
<g>
</g>
<g>
</g>
<g>
</g>
<g>
</g>
<g>
</g>
<g>
</g>
<g>
</g>
<g>
</g>
<g>
</g>
<g>
</g>
<g>
</g>
<g>
</g>
<g>
</g>
</g></symbol><symbol id="icon-play"><path d="M4.8 1.698c-1.557-.9-2.828-.16-2.828 1.642v13.304c0 1.8 1.27 2.542 2.839 1.642l11.63-6.674c1.568-.9 1.568-2.351 0-3.251L4.8 1.698z"/></symbol><symbol id="icon-telegram" viewBox="0 0 24 24"><path d="M9.78,18.65L10.06,14.42L17.74,7.5C18.08,7.19 17.67,7.04 17.22,7.31L7.74,13.3L3.64,12C2.76,11.75 2.75,11.14 3.84,10.7L19.81,4.54C20.54,4.21 21.24,4.72 20.96,5.84L18.24,18.65C18.05,19.56 17.5,19.78 16.74,19.36L12.6,16.3L10.61,18.23C10.38,18.46 10.19,18.65 9.78,18.65Z"/></symbol><symbol id="icon-viber" viewBox="0 0 32 32">
  <path d="M15.198 0.005c-2.568 0.031-8.089 0.453-11.177 3.286-2.297 2.276-3.099 5.641-3.193 9.802-0.078 4.146-0.172 11.932 7.333 14.052v3.229c0 0-0.047 1.292 0.807 1.557 1.052 0.333 1.651-0.661 2.651-1.729l1.865-2.109c5.135 0.427 9.068-0.557 9.521-0.703 1.042-0.333 6.911-1.083 7.87-8.87 0.984-8.042-0.479-13.109-3.12-15.401h-0.016c-0.797-0.734-4-3.068-11.156-3.094 0 0-0.531-0.036-1.385-0.021zM15.286 2.266c0.729-0.005 1.172 0.026 1.172 0.026 6.057 0.016 8.948 1.839 9.63 2.453 2.224 1.906 3.37 6.474 2.531 13.188-0.797 6.51-5.557 6.922-6.438 7.203-0.375 0.12-3.839 0.974-8.203 0.693 0 0-3.25 3.922-4.266 4.932-0.161 0.177-0.349 0.229-0.469 0.203-0.172-0.042-0.224-0.255-0.214-0.547l0.031-5.359c-6.365-1.76-5.99-8.401-5.922-11.87 0.078-3.469 0.729-6.307 2.667-8.229 2.609-2.359 7.297-2.677 9.479-2.693zM15.766 5.734c-0.219-0.005-0.401 0.177-0.401 0.396 0 0.224 0.182 0.401 0.401 0.401 2.005-0.036 3.938 0.724 5.375 2.12 1.453 1.411 2.161 3.307 2.188 5.786 0 0.219 0.177 0.401 0.401 0.401v-0.016c0.219 0 0.401-0.177 0.401-0.396 0.099-2.359-0.776-4.651-2.417-6.349-1.583-1.547-3.589-2.344-5.948-2.344zM10.495 6.651c-0.281-0.042-0.573 0.016-0.818 0.161h-0.021c-0.542 0.318-1.047 0.719-1.526 1.255-0.365 0.422-0.563 0.849-0.615 1.26-0.031 0.245-0.010 0.49 0.063 0.724l0.026 0.016c0.411 1.208 0.948 2.37 1.604 3.464 0.844 1.536 1.885 2.958 3.094 4.229l0.036 0.052 0.057 0.042 0.036 0.042 0.042 0.036c1.276 1.214 2.698 2.255 4.24 3.109 1.76 0.958 2.828 1.411 3.469 1.599v0.010c0.188 0.057 0.359 0.083 0.531 0.083 0.547-0.042 1.063-0.26 1.469-0.63 0.521-0.469 0.932-0.984 1.24-1.531v-0.010c0.307-0.578 0.203-1.125-0.24-1.495-0.885-0.776-1.849-1.464-2.865-2.057-0.682-0.37-1.375-0.146-1.656 0.229l-0.599 0.755c-0.307 0.375-0.865 0.323-0.865 0.323l-0.016 0.010c-4.161-1.063-5.271-5.276-5.271-5.276s-0.052-0.573 0.333-0.865l0.75-0.604c0.359-0.292 0.609-0.984 0.224-1.667-0.589-1.021-1.276-1.979-2.052-2.865-0.167-0.208-0.406-0.349-0.672-0.401zM16.458 7.839c-0.531 0-0.531 0.802 0.005 0.802 1.333 0.021 2.604 0.573 3.531 1.531 0.844 0.932 1.281 2.172 1.198 3.427 0.005 0.219 0.182 0.396 0.401 0.396l0.016 0.021c0.219 0 0.401-0.182 0.401-0.401 0.036-1.589-0.458-2.922-1.427-3.99-0.974-1.068-2.333-1.667-4.068-1.786-0.021 0-0.036 0-0.057 0zM17.115 9.995c-0.547-0.016-0.568 0.802-0.026 0.818 1.318 0.068 1.958 0.734 2.042 2.104 0.005 0.219 0.182 0.391 0.396 0.391h0.016c0.224-0.010 0.401-0.203 0.385-0.427-0.094-1.786-1.068-2.792-2.797-2.885-0.005 0-0.010 0-0.016 0z"/>
</symbol><symbol id="icon-whatsapp" viewBox="0 0 512 512"><g enable-background="new 0 0 512 512"><g><path d="M506,252.7c-0.1,43.3-9.5,81.5-28.5,117c-17.9,33.5-42.6,61.4-73.7,83.4c-27.3,19.3-57.2,32.5-89.9,39.3   c-36.2,7.5-72.4,6.7-108.3-1.9c-19-4.6-37.2-11.6-54.3-20.9c-2.9-1.6-5.4-1.7-8.5-0.7C105.1,481,67.4,493,29.7,505   c-4.3,1.4-8.5,2.7-12.8,4.3c-3,1.1-3.2,0-2.4-2.5c4.4-12.9,8.7-25.8,13.1-38.8c9.4-28.1,18.8-56.2,28.4-84.2   c1.3-3.7-0.6-6.1-2.1-8.7c-11.8-20.5-20.2-42.3-25.4-65.3c-11.3-49.6-7.3-98.2,11.7-145.3c11-27.2,26.7-51.6,46.8-73.2   c25.6-27.6,55.9-47.9,90.9-61.5c32.7-12.7,66.5-17.6,101.3-15.5c47.7,2.9,91.1,18.7,129.2,47.5c49.3,37.2,80.3,86.1,92.7,146.8   C504.4,224.1,505.6,239.8,506,252.7z M262.5,54.8c-9.3-0.4-20.2,0.7-31.1,2.3c-4.3,0.6-8.5,1.5-12.7,2.6   c-65,16.5-111.7,55.3-139.2,116.4c-15.9,35.3-20.2,72.6-14.2,110.8c4.7,30.2,15.9,58,33.4,83.1c1.9,2.8,2.2,5.2,1.1,8.3   c-7.4,21.7-14.6,43.5-21.9,65.3c-0.4,1.2-1.6,2.6-0.5,3.7c1.1,1.2,2.5-0.1,3.7-0.5c21.9-7,43.8-13.9,65.5-21.2   c5-1.7,8.6-0.9,12.9,1.7c49.1,29.5,101.6,37.3,156.9,22.6c42-11.1,76.6-34,104-67.8c26.5-32.7,41.3-70.1,44.3-111.9   c2.3-32.1-2.7-63.3-15.5-93.1c-16.1-37.5-41.2-67.5-75.1-89.8C340.9,65.5,304.2,54.3,262.5,54.8z"/><path d="M143.1,197.6c0.4-22.5,9.2-41,26.4-55.4c4.9-4.1,10.8-5.8,17.3-4.7c2.8,0.4,5.7,0.8,8.4,0.5   c6.8-0.5,10.7,3.3,12.8,8.9c6.4,16.8,12.6,33.7,18.9,50.5c1.2,3.2,0.9,6.1-0.6,9.1c-3.9,8.1-10.1,14.4-16.3,20.7   c-5.4,5.5-5.7,7.3-2,14c17.9,32.4,42.6,57.6,76.8,72.9c1.7,0.7,3.2,1.9,4.8,2.6c4.3,2.1,8.2,1.9,11.8-1.8   c7-7.1,13.5-14.7,19.8-22.5c4.9-6.1,7.2-7,14.1-3.9c16.8,7.8,32.8,16.9,49.1,25.7c5.4,2.9,6,6.9,5.2,14.2   c-3.3,29.7-26,43.2-51.9,47.5c-8.7,1.4-16.9,0.6-25.1-2c-24-7.6-47.6-16.4-68.8-30.2c-19.8-12.9-36.8-29-51.7-47.3   c-14.5-17.9-27.4-36.8-38.1-57.3C148,227.4,143.1,209.2,143.1,197.6z"/></g></g></symbol></svg>