<?xml version="1.0" encoding="utf-8"?>
<!-- Generator: Adobe Illustrator 19.2.1, SVG Export Plug-In . SVG Version: 6.00 Build 0)  -->
<svg version="1.1" id="Layer_1" xmlns="http://www.w3.org/2000/svg" xmlns:xlink="http://www.w3.org/1999/xlink" x="0px" y="0px"
	 viewBox="0 0 283.5 283.5" style="enable-background:new 0 0 283.5 283.5;" xml:space="preserve">
<style type="text/css">
	.st0{fill:#E84E1B;}
	.st1{fill:#3C3C3B;}
	.st2{fill:#1D1D1B;}
	.st3{fill:#FFFFFF;}
</style>
<g>
	<path class="st1" d="M161.9,98.3h-40.2c-3.1,0-6.1,0.5-8.9,1.4V69.4c0-5.3-4.3-9.6-9.6-9.6c-5.3,0-9.6,4.3-9.6,9.6v57.1v1.5v2.1
		c0,1,0.2,2,0.4,2.9c2.3,13.2,13.9,23.2,27.7,23.2h40.2c15.5,0,28.2-12.6,28.2-28.2v-1.5C190.1,111,177.4,98.3,161.9,98.3z
		 M170.8,128c0,4.9-4,8.9-8.9,8.9h-40.2c-4.9,0-8.9-4-8.9-8.9v-1.5c0-4.9,4-8.9,8.9-8.9h40.2c4.9,0,8.9,4,8.9,8.9V128z"/>
	<path class="st1" d="M51.8,191.5H39c-1.1,0-2.2,0.2-3.2,0.6v-10.2c0-1.8-1.4-3.2-3.2-3.2s-3.2,1.4-3.2,3.2v19.3
		c0,5.3,4.3,9.6,9.6,9.6h12.9c5.3,0,9.6-4.3,9.6-9.6C61.5,195.9,57.2,191.5,51.8,191.5z M51.8,204.4h-3.8h-5.3H39
		c-1.8,0-3.2-1.4-3.2-3.2c0-1.8,1.4-3.2,3.2-3.2h3.8h5.3h3.8c1.8,0,3.2,1.4,3.2,3.2C55.1,203,53.6,204.4,51.8,204.4z"/>
	<path class="st1" d="M90.4,191.5H77.6c-5.3,0-9.6,4.3-9.6,9.6c0,5.3,4.3,9.6,9.6,9.6h12.9c5.3,0,9.6-4.3,9.6-9.6
		C100.1,195.9,95.7,191.5,90.4,191.5z M90.4,204.4h-3.8h-5.3h-3.8c-1.8,0-3.2-1.4-3.2-3.2c0-1.8,1.4-3.2,3.2-3.2h3.8h5.3h3.8
		c1.8,0,3.2,1.4,3.2,3.2C93.6,203,92.2,204.4,90.4,204.4z"/>
	<path class="st1" d="M135.4,204.4L135.4,204.4l-10.1,0H120h-3.8c-1.8,0-3.2-1.4-3.2-3.2c0-1.8,1.4-3.2,3.2-3.2h3.8h5.3h10.1
		c0.9,0,1.7-0.4,2.3-1c0.6-0.6,0.9-1.4,0.9-2.2c0-1.8-1.4-3.2-3.2-3.2H129h-12.9c-5.3,0-9.6,4.3-9.6,9.6c0,5.3,4.3,9.6,9.6,9.6H129
		h6.4l0,0c1.8,0,3.2-1.4,3.2-3.2c0-0.9-0.3-1.7-0.9-2.2C137.1,204.8,136.3,204.4,135.4,204.4z"/>
	<path class="st1" d="M177.2,201.4c0-0.1,0-0.1,0-0.2c0-5.3-4.3-9.6-9.6-9.6h-12.9c-1.1,0-2.2,0.2-3.2,0.6v-10.2h0
		c0-1.8-1.4-3.2-3.2-3.2c-1.8,0-3.2,1.4-3.2,3.2h0v25.7c0,1.8,1.4,3.2,3.2,3.2c0.9,0,1.7-0.4,2.3-1c0.6-0.6,0.9-1.4,0.9-2.3h0v-6.4
		c0-1.8,1.4-3.2,3.2-3.2h3.8h5.3h3.8c1.8,0,3.2,1.4,3.2,3.2h0v0.4v5.8c0,0.1,0,0.2,0,0.2c0,0.9,0.4,1.7,1,2.3
		c0.6,0.6,1.4,0.9,2.3,0.9c1.8,0,3.2-1.4,3.2-3.2l0,0C177.2,207.6,177.2,202.8,177.2,201.4z"/>
	<path class="st1" d="M251.1,191.5c-0.9,0-1.7,0.4-2.3,1c-0.6,0.6-0.9,1.4-0.9,2.3h0v6.4c0,1.8-1.4,3.2-3.2,3.2h-3.8h-5.3h-3.8
		c-1.8,0-3.2-1.4-3.2-3.2h0v-0.4V195c0-0.1,0-0.2,0-0.2c0-0.9-0.4-1.7-1-2.3c-0.6-0.6-1.4-0.9-2.3-0.9c-1.8,0-3.2,1.4-3.2,3.2v0
		h-0.1v6.3c0,0.1,0,0.1,0,0.2c0,5.3,4.3,9.6,9.6,9.6h12.9c1.1,0,2.2-0.2,3.2-0.6v10.2h0c0,1.8,1.4,3.2,3.2,3.2
		c1.8,0,3.2-1.4,3.2-3.2h0v-25.7C254.4,193,252.9,191.5,251.1,191.5z"/>
	<path class="st1" d="M215.8,194.8L215.8,194.8c-0.1-1.8-1.5-3.2-3.3-3.2c-1.7,0-3,1.3-3.2,2.9c0,0.1,0,0.2,0,0.3s0,0.2,0,0.3
		c-0.1,1.6-1.5,2.9-3.2,2.9c0,0,0,0-0.1,0v0h-9h-7v-16.1h0c0-1.8-1.4-3.2-3.2-3.2c-1.8,0-3.2,1.4-3.2,3.2h0v25.7
		c0,1.8,1.4,3.2,3.2,3.2c1.8,0,3.2-1.4,3.2-3.2h0v-3.2h7l0,0h9.1h0c1.6,0,2.9,1.1,3.1,2.6c0,0.2-0.1,0.4-0.1,0.6
		c0,0.2,0,0.4,0.1,0.6c0.3,1.5,1.6,2.6,3.2,2.6c1.8,0,3.2-1.4,3.2-3.2v0h0.1v0c0-2.5-0.9-4.7-2.5-6.4
		C214.9,199.5,215.8,197.2,215.8,194.8z"/>
	<g>
		<g>
			<path class="st1" d="M260.8,191.8c-3.7,0-6.7-3-6.7-6.7c0-3.7,3-6.7,6.7-6.7c3.7,0,6.7,3,6.7,6.7
				C267.5,188.8,264.5,191.8,260.8,191.8z M260.8,179.4c-3.1,0-5.7,2.5-5.7,5.6c0,3.1,2.5,5.7,5.7,5.7c3.1,0,5.6-2.5,5.6-5.7
				C266.5,182,263.9,179.4,260.8,179.4z"/>
		</g>
		<g>
			<g>
				<path class="st1" d="M264,188.2h-2l-1.7-2.3h-0.8v2.3h-1.6v-6.4h2.8c0.4,0,0.7,0,1,0.1c0.3,0,0.5,0.1,0.8,0.3
					c0.2,0.1,0.4,0.3,0.6,0.6c0.1,0.2,0.2,0.5,0.2,0.9c0,0.5-0.1,0.9-0.3,1.1c-0.2,0.3-0.5,0.5-0.9,0.7L264,188.2z M261.5,183.8
					c0-0.2,0-0.3-0.1-0.4c-0.1-0.1-0.2-0.2-0.3-0.3c-0.1,0-0.2-0.1-0.4-0.1c-0.1,0-0.3,0-0.5,0h-0.6v1.7h0.5c0.3,0,0.5,0,0.7,0
					c0.2,0,0.3-0.1,0.4-0.2c0.1-0.1,0.2-0.2,0.3-0.3C261.4,184.1,261.5,184,261.5,183.8z"/>
			</g>
		</g>
	</g>
</g>
</svg>
