<?xml version="1.0" encoding="utf-8"?>
<!-- Generator: Adobe Illustrator 19.2.1, SVG Export Plug-In . SVG Version: 6.00 Build 0)  -->
<svg version="1.1" id="Layer_1" xmlns="http://www.w3.org/2000/svg" xmlns:xlink="http://www.w3.org/1999/xlink" x="0px" y="0px"
	 viewBox="0 0 283.5 283.5" style="enable-background:new 0 0 283.5 283.5;" xml:space="preserve">
<style type="text/css">
	.st0{fill:#E84E1B;}
	.st1{fill:#3C3C3B;}
	.st2{fill:#1D1D1B;}
	.st3{fill:#FFFFFF;}
</style>
<g>
	<path class="st3" d="M186.6,121.2H98.8c-6.8,0-13.3,1.1-19.4,3.2V58c0-11.6-9.4-21-21-21s-21,9.4-21,21v124.6v3.3v4.5
		c0,2.2,0.3,4.3,1,6.3c5.1,28.8,30.3,50.7,60.5,50.7h87.7c33.9,0,61.5-27.6,61.5-61.5v-3.3C248,148.8,220.5,121.2,186.6,121.2z
		 M206,186c0,10.7-8.7,19.4-19.4,19.4H98.8c-10.7,0-19.4-8.7-19.4-19.4v-3.3c0-10.7,8.7-19.4,19.4-19.4h87.7
		c10.7,0,19.4,8.7,19.4,19.4V186z"/>
	<g>
		<g>
			<path class="st3" d="M239.3,247.5c-4.8,0-8.8-3.9-8.8-8.8c0-4.8,3.9-8.8,8.8-8.8c4.8,0,8.8,3.9,8.8,8.8
				C248,243.5,244.1,247.5,239.3,247.5z M239.3,231.4c-4.1,0-7.3,3.3-7.3,7.3c0,4.1,3.3,7.3,7.3,7.3c4,0,7.3-3.3,7.3-7.3
				C246.6,234.7,243.3,231.4,239.3,231.4z"/>
		</g>
		<g>
			<g>
				<path class="st3" d="M243.5,242.7h-2.6l-2.3-3h-1v3h-2.1v-8.3h3.6c0.5,0,0.9,0,1.3,0.1c0.4,0.1,0.7,0.2,1,0.4
					c0.3,0.2,0.6,0.4,0.7,0.7s0.3,0.7,0.3,1.1c0,0.6-0.1,1.1-0.4,1.5c-0.3,0.4-0.7,0.7-1.2,1L243.5,242.7z M240.1,237
					c0-0.2,0-0.4-0.1-0.5c-0.1-0.1-0.2-0.3-0.4-0.4c-0.1-0.1-0.3-0.1-0.5-0.1c-0.2,0-0.4,0-0.7,0h-0.8v2.2h0.7c0.3,0,0.6,0,0.9-0.1
					c0.2,0,0.4-0.1,0.6-0.2c0.1-0.1,0.3-0.2,0.3-0.4C240.1,237.4,240.1,237.2,240.1,237z"/>
			</g>
		</g>
	</g>
</g>
</svg>
