<svg width="119" height="119" viewBox="0 0 119 119" fill="none" xmlns="http://www.w3.org/2000/svg">
<path d="M118.458 60.1478L118.375 62.1071C118.355 62.5858 118.183 62.9762 117.859 63.2781C117.535 63.58 117.141 63.7212 116.677 63.7014C116.215 63.6818 115.835 63.5066 115.535 63.1758C115.238 62.8475 115.1 62.4452 115.12 61.9689L115.18 60.5652L113.26 60.4837L113.284 59.928L118.458 60.1478ZM117.855 62.085L117.915 60.6814L115.7 60.5873L115.64 61.9909C115.626 62.3253 115.715 62.5978 115.909 62.8085C116.102 63.0191 116.366 63.1316 116.701 63.1458C117.035 63.16 117.308 63.0703 117.518 62.8768C117.729 62.6833 117.841 62.4194 117.855 62.085Z" fill="#1C1C1C"/>
<path d="M118.175 65.2894L117.956 66.9035C117.855 67.6503 117.518 68.2484 116.944 68.6978C116.37 69.1472 115.732 69.3242 115.028 69.2287C114.324 69.1333 113.755 68.7925 113.322 68.2065C112.889 67.6204 112.723 66.954 112.824 66.2073L113.043 64.5932L118.175 65.2894ZM117.441 66.8336L117.585 65.7707L113.48 65.2138L113.336 66.2767C113.255 66.8779 113.385 67.4096 113.728 67.8716C114.072 68.3336 114.528 68.6033 115.098 68.6807C115.671 68.7584 116.184 68.6202 116.638 68.2663C117.092 67.9124 117.36 67.4348 117.441 66.8336Z" fill="#1C1C1C"/>
<path d="M117.274 71.1163L116.497 74.5435L115.99 74.4286L116.643 71.5438L114.914 71.1519L114.391 73.459L113.884 73.3441L114.407 71.037L112.1 70.5142L112.223 69.9718L117.274 71.1163Z" fill="#1C1C1C"/>
<path d="M113.168 83.7943L112.304 85.555C112.093 85.9852 111.779 86.2735 111.361 86.4199C110.943 86.5663 110.526 86.5372 110.109 86.3326C109.694 86.1291 109.416 85.8157 109.275 85.3925C109.135 84.9725 109.17 84.5486 109.38 84.1205L109.998 82.8592L108.273 82.0131L108.518 81.5137L113.168 83.7943ZM111.837 85.326L112.456 84.0646L110.465 83.0882L109.846 84.3495C109.699 84.65 109.672 84.9356 109.764 85.2062C109.857 85.4769 110.053 85.6859 110.354 85.8333C110.654 85.9806 110.94 86.008 111.21 85.9155C111.481 85.823 111.69 85.6265 111.837 85.326Z" fill="#1C1C1C"/>
<path d="M110.84 88.3854L109.991 89.7754C109.598 90.4186 109.048 90.8307 108.343 91.0118C107.637 91.1929 106.981 91.0983 106.374 90.7281C105.768 90.3578 105.385 89.8174 105.223 89.1067C105.062 88.396 105.178 87.7191 105.571 87.0759L106.42 85.6859L110.84 88.3854ZM109.547 89.5043L110.106 88.5889L106.571 86.4297L106.011 87.3451C105.695 87.8629 105.601 88.4023 105.73 88.9633C105.858 89.5242 106.168 89.9547 106.659 90.2546C107.153 90.5558 107.678 90.6355 108.236 90.4937C108.793 90.3519 109.231 90.0221 109.547 89.5043Z" fill="#1C1C1C"/>
<path d="M107.663 93.3636L105.576 96.1902L105.157 95.8812L106.915 93.502L105.488 92.4484L104.083 94.3512L103.664 94.0422L105.07 92.1394L103.167 90.7339L103.498 90.2866L107.663 93.3636Z" fill="#1C1C1C"/>
<path d="M98.8301 103.307L97.337 104.579C96.9723 104.89 96.5691 105.029 96.1276 104.997C95.6861 104.965 95.3147 104.772 95.0134 104.418C94.7137 104.066 94.5833 103.668 94.6223 103.224C94.6611 102.783 94.8619 102.408 95.2249 102.099L96.2945 101.188L95.0488 99.725L95.4722 99.3644L98.8301 103.307ZM96.9998 104.183L98.0695 103.272L96.6317 101.584L95.5621 102.495C95.3073 102.712 95.1685 102.963 95.1456 103.248C95.1228 103.533 95.2198 103.803 95.4368 104.058C95.6538 104.312 95.9049 104.451 96.19 104.474C96.4751 104.497 96.745 104.4 96.9998 104.183Z" fill="#1C1C1C"/>
<path d="M94.8091 106.631L93.4746 107.565C92.8572 107.997 92.1888 108.154 91.4694 108.038C90.7501 107.921 90.1868 107.572 89.7795 106.99C89.3722 106.408 89.237 105.759 89.3738 105.043C89.5105 104.327 89.8876 103.754 90.5051 103.321L91.8396 102.387L94.8091 106.631ZM93.1764 107.138L94.0552 106.523L91.68 103.13L90.8012 103.745C90.3041 104.092 90.0022 104.549 89.8954 105.115C89.7886 105.68 89.9002 106.199 90.2301 106.67C90.5615 107.144 91.0111 107.427 91.5789 107.52C92.1468 107.614 92.6793 107.486 93.1764 107.138Z" fill="#1C1C1C"/>
<path d="M89.9168 109.914L86.8717 111.668L86.6121 111.218L89.1753 109.741L88.2903 108.205L86.2404 109.385L85.9808 108.935L88.0307 107.754L86.8501 105.704L87.3321 105.426L89.9168 109.914Z" fill="#1C1C1C"/>
<path d="M77.844 115.486L75.9654 116.049C75.5065 116.186 75.0813 116.152 74.69 115.945C74.2987 115.738 74.0364 115.411 73.903 114.966C73.7703 114.524 73.8112 114.107 74.0258 113.716C74.2388 113.327 74.5736 113.065 75.0303 112.928L76.3761 112.525L75.8246 110.684L76.3573 110.525L77.844 115.486ZM75.8162 115.551L77.1619 115.147L76.5254 113.023L75.1796 113.426C74.859 113.522 74.6309 113.696 74.4952 113.948C74.3595 114.2 74.3397 114.486 74.4358 114.807C74.5319 115.127 74.7058 115.355 74.9576 115.491C75.2094 115.627 75.4956 115.647 75.8162 115.551Z" fill="#1C1C1C"/>
<path d="M72.8438 116.904L71.2462 117.222C70.507 117.369 69.8317 117.244 69.2202 116.847C68.6087 116.451 68.2338 115.904 68.0954 115.208C67.957 114.511 68.0945 113.863 68.508 113.262C68.9215 112.662 69.4978 112.289 70.237 112.142L71.8346 111.825L72.8438 116.904ZM71.1448 116.712L72.1969 116.503L71.3897 112.44L70.3376 112.649C69.7425 112.767 69.2822 113.063 68.9567 113.538C68.6312 114.012 68.5246 114.532 68.6367 115.096C68.7493 115.663 69.0467 116.104 69.5289 116.418C70.011 116.732 70.5497 116.83 71.1448 116.712Z" fill="#1C1C1C"/>
<path d="M67.0508 117.939L63.5571 118.317L63.5011 117.8L66.4418 117.482L66.2508 115.719L63.8989 115.973L63.8429 115.456L66.1947 115.202L65.9399 112.85L66.4928 112.79L67.0508 117.939Z" fill="#1C1C1C"/>
<path d="M51.3294 117.915L49.3939 117.599C48.921 117.522 48.5539 117.305 48.2926 116.947C48.0313 116.59 47.938 116.182 48.0128 115.723C48.0873 115.267 48.3065 114.91 48.6706 114.652C49.0319 114.397 49.4478 114.307 49.9183 114.384L51.3049 114.61L51.6142 112.714L52.1631 112.803L51.3294 117.915ZM49.4776 117.086L50.8642 117.312L51.2211 115.123L49.8346 114.897C49.5042 114.843 49.223 114.9 48.9908 115.067C48.7587 115.234 48.6156 115.483 48.5618 115.813C48.5079 116.143 48.5645 116.424 48.7315 116.657C48.8986 116.889 49.1473 117.032 49.4776 117.086Z" fill="#1C1C1C"/>
<path d="M46.2142 117.008L44.6389 116.594C43.9101 116.402 43.3576 115.994 42.9814 115.37C42.6052 114.746 42.5074 114.09 42.688 113.403C42.8686 112.716 43.2761 112.194 43.9106 111.835C44.545 111.477 45.2267 111.393 45.9556 111.585L47.5309 111.999L46.2142 117.008ZM44.7711 116.091L45.8085 116.363L46.8617 112.357L45.8243 112.084C45.2375 111.93 44.6938 111.995 44.1934 112.279C43.693 112.563 43.3696 112.984 43.2234 113.54C43.0764 114.099 43.151 114.625 43.447 115.119C43.7429 115.612 44.1843 115.936 44.7711 116.091Z" fill="#1C1C1C"/>
<path d="M40.561 115.406L37.2527 114.221L37.4281 113.732L40.2127 114.729L40.8107 113.06L38.5837 112.262L38.759 111.772L40.9861 112.57L41.7838 110.343L42.3074 110.531L40.561 115.406Z" fill="#1C1C1C"/>
<path d="M28.5299 109.817L26.8831 108.752C26.4807 108.492 26.2315 108.146 26.1352 107.714C26.039 107.282 26.1171 106.871 26.3694 106.48C26.6204 106.092 26.9644 105.853 27.4012 105.763C27.8347 105.673 28.2516 105.758 28.652 106.017L29.8317 106.779L30.875 105.166L31.3421 105.468L28.5299 109.817ZM27.1655 108.315L28.3452 109.078L29.5493 107.216L28.3696 106.453C28.0885 106.272 27.8082 106.211 27.5285 106.271C27.2489 106.331 27.0182 106.501 26.8365 106.782C26.6547 107.063 26.5939 107.344 26.6539 107.623C26.7139 107.903 26.8844 108.134 27.1655 108.315Z" fill="#1C1C1C"/>
<path d="M24.206 106.925L22.9283 105.915C22.3372 105.447 21.9942 104.852 21.8995 104.13C21.8047 103.407 21.9776 102.767 22.4181 102.21C22.8587 101.653 23.4414 101.337 24.1663 101.263C24.8913 101.188 25.5493 101.385 26.1405 101.852L27.4182 102.862L24.206 106.925ZM23.2509 105.507L24.0923 106.172L26.6616 102.923L25.8202 102.257C25.3442 101.881 24.8201 101.723 24.2477 101.783C23.6753 101.843 23.2107 102.099 22.8538 102.55C22.4954 103.003 22.353 103.515 22.4266 104.086C22.5002 104.657 22.7749 105.13 23.2509 105.507Z" fill="#1C1C1C"/>
<path d="M19.6666 103.189L17.1106 100.778L17.4675 100.399L19.619 102.429L20.8359 101.139L19.1153 99.516L19.4722 99.1377L21.1928 100.761L22.8162 99.0405L23.2208 99.4222L19.6666 103.189Z" fill="#1C1C1C"/>
<path d="M9.64978 91.4482L8.62758 89.7745C8.37784 89.3656 8.3033 88.9457 8.40396 88.5146C8.50463 88.0835 8.75325 87.7469 9.14982 87.5047C9.54434 87.2637 9.95799 87.1973 10.3908 87.3053C10.8202 87.4126 11.1592 87.6697 11.4077 88.0765L12.14 89.2755L13.7797 88.274L14.0696 88.7487L9.64978 91.4482ZM9.07142 89.5035L9.80371 90.7024L11.6962 89.5466L10.9639 88.3476C10.7894 88.062 10.5632 87.8856 10.2852 87.8184C10.0072 87.7512 9.72534 87.8049 9.43972 87.9793C9.15411 88.1538 8.97771 88.38 8.91053 88.658C8.84334 88.936 8.89697 89.2179 9.07142 89.5035Z" fill="#1C1C1C"/>
<path d="M6.98007 86.93L6.26826 85.465C5.93892 84.7871 5.88856 84.1022 6.11719 83.4102C6.34581 82.7183 6.77956 82.2171 7.41842 81.9067C8.05729 81.5963 8.71937 81.5651 9.40464 81.813C10.0899 82.0609 10.5972 82.5238 10.9266 83.2017L11.6384 84.6667L6.98007 86.93ZM6.73604 85.2377L7.20479 86.2025L10.9308 84.3922L10.462 83.4274C10.1969 82.8816 9.79351 82.5114 9.25192 82.3168C8.71033 82.1222 8.18074 82.1507 7.66315 82.4021C7.1434 82.6547 6.79265 83.0539 6.61091 83.6C6.42917 84.146 6.47088 84.6919 6.73604 85.2377Z" fill="#1C1C1C"/>
<path d="M4.54489 81.6741L3.28572 78.3934L3.77126 78.207L4.83114 80.9685L6.48668 80.3331L5.63904 78.1246L6.12458 77.9382L6.97222 80.1467L9.18074 79.2991L9.38003 79.8184L4.54489 81.6741Z" fill="#1C1C1C"/>
<path d="M0.908551 68.7744L0.652383 66.8301C0.589796 66.355 0.69187 65.9409 0.958606 65.5876C1.22534 65.2343 1.58906 65.0273 2.04977 64.9666C2.5081 64.9062 2.91318 65.0131 3.26502 65.2874C3.61415 65.5595 3.81986 65.9319 3.88213 66.4045L4.06565 67.7974L5.97056 67.5464L6.04321 68.0978L0.908551 68.7744ZM1.168 66.7621L1.35151 68.155L3.55003 67.8653L3.36652 66.4725C3.3228 66.1407 3.18748 65.8877 2.96054 65.7136C2.7336 65.5395 2.45423 65.4743 2.12243 65.518C1.79062 65.5618 1.53767 65.6971 1.36357 65.924C1.18947 66.1509 1.12428 66.4303 1.168 66.7621Z" fill="#1C1C1C"/>
<path d="M0.302007 63.6663L0.239161 62.0387C0.210083 61.2856 0.439291 60.6383 0.926785 60.0966C1.41428 59.5549 2.0129 59.2703 2.72265 59.2429C3.43241 59.2155 4.05119 59.4531 4.579 59.9556C5.10681 60.4581 5.38526 61.0858 5.41434 61.8389L5.47718 63.4665L0.302007 63.6663ZM0.758843 62.0186L0.80023 63.0905L4.93965 62.9307L4.89826 61.8588C4.87485 61.2525 4.65431 60.7514 4.23663 60.3555C3.81895 59.9596 3.3226 59.7728 2.74758 59.795C2.17016 59.8173 1.68849 60.0419 1.30259 60.4688C0.916681 60.8957 0.735433 61.4123 0.758843 62.0186Z" fill="#1C1C1C"/>
<path d="M0.18457 57.6353L0.360779 54.1256L0.880195 54.1517L0.731875 57.1059L2.50294 57.1948L2.62156 54.8322L3.14097 54.8582L3.02235 57.2209L5.38498 57.3395L5.35709 57.895L0.18457 57.6353Z" fill="#1C1C1C"/>
<path d="M2.05393 44.3625L2.60264 42.4798C2.73671 42.0198 2.99696 41.6818 3.3834 41.4659C3.76985 41.25 4.18613 41.2071 4.63227 41.3371C5.07609 41.4664 5.40379 41.7274 5.61536 42.1202C5.8253 42.5099 5.86358 42.9336 5.73019 43.3913L5.3371 44.7401L7.18172 45.2777L7.0261 45.8116L2.05393 44.3625ZM3.10194 42.6253L2.70885 43.9741L4.8378 44.5945L5.23089 43.2458C5.32453 42.9244 5.30256 42.6384 5.16498 42.3876C5.0274 42.1369 4.79795 41.9647 4.47665 41.871C4.15534 41.7774 3.8693 41.7994 3.61854 41.937C3.36778 42.0745 3.19558 42.304 3.10194 42.6253Z" fill="#1C1C1C"/>
<path d="M3.56067 39.4249L4.16137 37.9109C4.4393 37.2104 4.91072 36.711 5.57562 36.4127C6.24053 36.1144 6.90309 36.0963 7.56331 36.3582C8.22352 36.6202 8.6934 37.0876 8.97293 37.7606C9.25247 38.4336 9.25327 39.1204 8.97534 39.8209L8.37464 41.3349L3.56067 39.4249ZM4.64478 38.1027L4.2492 39.0998L8.09971 40.6275L8.49529 39.6304C8.71905 39.0665 8.71998 38.519 8.49807 37.988C8.27616 37.457 7.89776 37.0854 7.36288 36.8732C6.82576 36.6601 6.2944 36.6707 5.76881 36.9051C5.24322 37.1395 4.86855 37.5387 4.64478 38.1027Z" fill="#1C1C1C"/>
<path d="M5.74528 34.1737L7.31605 31.0302L7.78127 31.2627L6.45911 33.9087L8.04539 34.7013L9.10279 32.5852L9.56802 32.8177L8.51061 34.9338L10.6267 35.9912L10.3781 36.4887L5.74528 34.1737Z" fill="#1C1C1C"/>
<path d="M12.6945 22.8641L13.9496 21.3573C14.2563 20.9892 14.6299 20.7833 15.0704 20.7397C15.5109 20.6962 15.9097 20.8231 16.2667 21.1205C16.622 21.4164 16.8181 21.7866 16.8552 22.2311C16.892 22.6722 16.7578 23.0759 16.4527 23.4422L15.5535 24.5217L17.0299 25.7514L16.6739 26.1788L12.6945 22.8641ZM14.3492 21.6902L13.4501 22.7696L15.1539 24.1889L16.0531 23.1094C16.2673 22.8522 16.3614 22.5812 16.3354 22.2964C16.3095 22.0116 16.1679 21.762 15.9108 21.5478C15.6536 21.3336 15.3826 21.2395 15.0978 21.2655C14.8129 21.2914 14.5634 21.433 14.3492 21.6902Z" fill="#1C1C1C"/>
<path d="M16.1426 18.8258L17.2985 17.6783C17.8333 17.1473 18.4651 16.8781 19.1938 16.8705C19.9225 16.8629 20.5371 17.1112 21.0375 17.6152C21.5379 18.1193 21.7817 18.7357 21.7688 19.4643C21.756 20.1929 21.4821 20.8227 20.9473 21.3537L19.7914 22.5013L16.1426 18.8258ZM17.6649 18.0474L16.9037 18.8031L19.8222 21.7429L20.5834 20.9872C21.014 20.5597 21.2338 20.0582 21.2427 19.4828C21.2516 18.9074 21.0533 18.4155 20.6479 18.0071C20.2408 17.597 19.7495 17.3943 19.174 17.3991C18.5985 17.4038 18.0955 17.6199 17.6649 18.0474Z" fill="#1C1C1C"/>
<path d="M20.4039 14.7414L23.104 12.4923L23.4369 12.8919L21.1641 14.785L22.299 16.1475L24.1167 14.6335L24.4495 15.0331L22.6319 16.5471L24.1459 18.3648L23.7186 18.7207L20.4039 14.7414Z" fill="#1C1C1C"/>
<path d="M31.3311 7.15857L33.0853 6.28197C33.5139 6.0678 33.9387 6.02914 34.3597 6.166C34.7807 6.30285 35.0951 6.57912 35.3028 6.99481C35.5094 7.40834 35.5405 7.82613 35.3961 8.24819C35.2528 8.66702 34.9679 8.98298 34.5415 9.19607L33.2847 9.82406L34.1436 11.5428L33.646 11.7914L31.3311 7.15857ZM33.3178 6.7472L32.0611 7.37518L33.0523 9.35884L34.309 8.73085C34.6084 8.58125 34.8033 8.37079 34.8939 8.09947C34.9844 7.82815 34.9548 7.5428 34.8052 7.24342C34.6556 6.94404 34.4452 6.74909 34.1739 6.65857C33.9025 6.56806 33.6172 6.5976 33.3178 6.7472Z" fill="#1C1C1C"/>
<path d="M35.8877 4.93939L37.4062 4.35005C38.1087 4.07738 38.7954 4.08333 39.4663 4.3679C40.1372 4.65247 40.6012 5.12583 40.8582 5.78799C41.1152 6.45015 41.092 7.11256 40.7888 7.77521C40.4855 8.43786 39.9826 8.90553 39.28 9.1782L37.7615 9.76754L35.8877 4.93939ZM37.5943 4.83489L36.5944 5.22299L38.0932 9.08483L39.0932 8.69673C39.6588 8.4772 40.0608 8.10552 40.2991 7.58171C40.5375 7.05789 40.5525 6.52775 40.3443 5.99129C40.1353 5.45258 39.7661 5.07029 39.2368 4.84441C38.7074 4.61853 38.16 4.61536 37.5943 4.83489Z" fill="#1C1C1C"/>
<path d="M41.6453 2.83101L45.0227 1.86056L45.1664 2.3604L42.3235 3.17726L42.8132 4.88159L45.0868 4.22831L45.2304 4.72815L42.9568 5.38144L43.6101 7.65504L43.0756 7.80864L41.6453 2.83101Z" fill="#1C1C1C"/>
<path d="M52.1176 0.565898L54.071 0.392177C54.5483 0.349733 54.9577 0.469229 55.2994 0.750665C55.6411 1.0321 55.8325 1.40425 55.8737 1.86712C55.9146 2.32758 55.7907 2.72778 55.5019 3.06771C55.2152 3.40503 54.8344 3.5948 54.3596 3.63703L52.9602 3.76148L53.1304 5.6753L52.5764 5.72457L52.1176 0.565898ZM54.1171 0.910202L52.7177 1.03465L52.9141 3.24346L54.3135 3.11901C54.6469 3.08936 54.9053 2.96485 55.0889 2.74548C55.2724 2.52611 55.3493 2.24974 55.3197 1.91639C55.29 1.58303 55.1655 1.32458 54.9462 1.14104C54.7268 0.957501 54.4504 0.880555 54.1171 0.910202Z" fill="#1C1C1C"/>
<path d="M57.5262 0.147461L59.155 0.160036C59.9086 0.165854 60.5447 0.424788 61.0632 0.936838C61.5817 1.44889 61.8383 2.06004 61.8328 2.7703C61.8273 3.48056 61.5614 4.08768 61.035 4.59167C60.5086 5.09565 59.8686 5.34473 59.115 5.33891L57.4862 5.32634L57.5262 0.147461ZM59.151 0.68009L58.0784 0.671809L58.0464 4.81419L59.119 4.82247C59.7257 4.82715 60.2365 4.63005 60.6513 4.23115C61.0661 3.83224 61.2757 3.34508 61.2802 2.76965C61.2847 2.19181 61.0826 1.70026 60.674 1.295C60.2654 0.889746 59.7577 0.684775 59.151 0.68009Z" fill="#1C1C1C"/>
<path d="M63.6588 0.304319L67.1566 0.642547L67.1065 1.1602L64.1623 0.875507L63.9917 2.64057L66.3463 2.86826L66.2962 3.38591L63.9416 3.15822L63.7139 5.51284L63.1603 5.4593L63.6588 0.304319Z" fill="#1C1C1C"/>
<path d="M76.7554 2.75262L78.6114 3.38605C79.0648 3.54081 79.3906 3.8161 79.5888 4.21193C79.787 4.60775 79.8111 5.02556 79.661 5.46534C79.5117 5.90285 79.236 6.21839 78.8342 6.41196C78.4353 6.60404 78.0103 6.62308 77.5592 6.4691L76.2295 6.01532L75.6089 7.83371L75.0826 7.65406L76.7554 2.75262ZM78.4434 3.87824L77.1138 3.42446L76.3975 5.52313L77.7271 5.97691C78.0439 6.085 78.3306 6.07601 78.5873 5.94993C78.8441 5.82385 79.0265 5.60244 79.1346 5.2857C79.2427 4.96896 79.2337 4.68223 79.1076 4.42549C78.9815 4.16876 78.7601 3.98634 78.4434 3.87824Z" fill="#1C1C1C"/>
<path d="M81.5758 4.45739L83.0614 5.12531C83.7487 5.43434 84.2265 5.92766 84.4947 6.60526C84.7629 7.28287 84.7514 7.94558 84.4601 8.59339C84.1688 9.24121 83.6808 9.68967 82.9959 9.93878C82.3111 10.1879 81.625 10.1579 80.9376 9.84889L79.452 9.18096L81.5758 4.45739ZM82.8481 5.59965L81.8698 5.15979L80.1711 8.93799L81.1494 9.37785C81.7028 9.62665 82.2497 9.6521 82.7901 9.45421C83.3305 9.25631 83.7187 8.89494 83.9546 8.3701C84.1916 7.84306 84.2048 7.31176 83.9941 6.7762C83.7835 6.24063 83.4015 5.84845 82.8481 5.59965Z" fill="#1C1C1C"/>
<path d="M87.0093 7.02223L90.0737 8.74225L89.8191 9.19576L87.2398 7.74797L86.3718 9.29433L88.4347 10.4522L88.1801 10.9057L86.1173 9.74784L84.9594 11.8107L84.4744 11.5385L87.0093 7.02223Z" fill="#1C1C1C"/>
<path d="M97.9657 14.5145L99.4115 15.8394C99.7648 16.1631 99.9528 16.546 99.9755 16.9881C99.9982 17.4302 99.8525 17.8225 99.5386 18.1651C99.2263 18.5059 98.8472 18.6844 98.4014 18.7004C97.959 18.7163 97.5621 18.5632 97.2106 18.2411L96.1749 17.292L94.8768 18.7085L94.4667 18.3327L97.9657 14.5145ZM99.0602 16.2228L98.0244 15.2737L96.5262 16.9085L97.562 17.8577C97.8087 18.0838 98.075 18.1906 98.3607 18.1782C98.6465 18.1657 98.9024 18.0361 99.1285 17.7894C99.3546 17.5426 99.4615 17.2764 99.449 16.9906C99.4365 16.7049 99.3069 16.4489 99.0602 16.2228Z" fill="#1C1C1C"/>
<path d="M101.594 17.904L102.69 19.1088C103.197 19.6663 103.439 20.3092 103.414 21.0376C103.39 21.7659 103.115 22.3691 102.59 22.847C102.065 23.325 101.438 23.5417 100.711 23.4971C99.9834 23.4524 99.3661 23.1514 98.859 22.5939L97.7629 21.3891L101.594 17.904ZM102.305 19.4588L101.583 18.6654L98.5192 21.453L99.241 22.2464C99.6493 22.6952 100.141 22.9366 100.715 22.9706C101.29 23.0046 101.79 22.8279 102.215 22.4407C102.643 22.0519 102.867 21.5699 102.887 20.9947C102.908 20.4196 102.714 19.9076 102.305 19.4588Z" fill="#1C1C1C"/>
<path d="M105.505 22.3519L107.634 25.1477L107.221 25.4627L105.429 23.1094L104.018 24.1837L105.451 26.0658L105.037 26.3809L103.604 24.4988L101.722 25.9319L101.385 25.4894L105.505 22.3519Z" fill="#1C1C1C"/>
<path d="M112.642 33.6682L113.44 35.4598C113.635 35.8975 113.654 36.3236 113.499 36.7381C113.343 37.1525 113.053 37.4543 112.629 37.6432C112.206 37.8312 111.788 37.8437 111.372 37.6806C110.96 37.5188 110.657 37.2201 110.464 36.7845L109.892 35.5011L108.137 36.2824L107.911 35.7743L112.642 33.6682ZM112.965 35.6713L112.393 34.3878L110.367 35.2896L110.939 36.5731C111.075 36.8788 111.276 37.083 111.543 37.1855C111.81 37.288 112.097 37.2712 112.403 37.1351C112.708 36.999 112.912 36.7975 113.015 36.5304C113.117 36.2634 113.101 35.977 112.965 35.6713Z" fill="#1C1C1C"/>
<path d="M114.681 38.396L115.201 39.9394C115.442 40.6536 115.405 41.3393 115.091 41.9967C114.776 42.6541 114.282 43.0963 113.609 43.3231C112.936 43.55 112.275 43.497 111.627 43.1642C110.979 42.8314 110.534 42.3079 110.294 41.5938L109.773 40.0503L114.681 38.396ZM114.709 40.1056L114.366 39.0891L110.44 40.4124L110.783 41.4288C110.977 42.0038 111.33 42.4221 111.843 42.6838C112.355 42.9455 112.884 42.9845 113.429 42.8007C113.977 42.6161 114.375 42.2645 114.625 41.7459C114.874 41.2273 114.902 40.6805 114.709 40.1056Z" fill="#1C1C1C"/>
<path d="M116.513 44.2062L117.329 47.6243L116.823 47.745L116.136 44.8679L114.411 45.2795L114.96 47.5805L114.454 47.7012L113.905 45.4002L111.604 45.9493L111.475 45.4083L116.513 44.2062Z" fill="#1C1C1C"/>
<path d="M47.7003 44.128H52.529C53.6807 44.128 54.6442 44.5072 55.4194 45.2657C56.2003 46.0185 56.5908 46.937 56.5908 48.0213C56.5908 49.1 56.2003 50.0157 55.4194 50.7685C54.6442 51.5214 53.6807 51.8978 52.529 51.8978H49.5963V56.2124H47.7003V44.128ZM52.529 45.8556H49.5963V50.1702H52.529C53.1245 50.1702 53.6329 49.9652 54.0543 49.555C54.4756 49.1393 54.6863 48.6281 54.6863 48.0213C54.6863 47.4089 54.4756 46.8949 54.0543 46.4792C53.6329 46.0634 53.1245 45.8556 52.529 45.8556Z" fill="#1C1C1C"/>
<path d="M61.9251 47.7517C62.2341 47.7517 62.5347 47.791 62.8268 47.8696C63.1246 47.9427 63.3746 48.0354 63.5768 48.1477C63.7847 48.2545 63.9701 48.3668 64.133 48.4848C64.2959 48.5972 64.4111 48.6871 64.4785 48.7545L64.5965 48.8809V44.128H66.3241V56.2124H64.5965V55.2602C64.5179 55.3388 64.4055 55.4427 64.2594 55.572C64.119 55.7012 63.8156 55.8697 63.3493 56.0776C62.883 56.2798 62.4083 56.381 61.9251 56.381C60.8296 56.381 59.8802 55.9624 59.0768 55.1253C58.2734 54.2826 57.8717 53.2629 57.8717 52.0663C57.8717 50.8697 58.2734 49.8528 59.0768 49.0157C59.8802 48.173 60.8296 47.7517 61.9251 47.7517ZM60.3493 54.0214C60.8605 54.5607 61.442 54.8304 62.0937 54.8304C62.751 54.8304 63.3325 54.5607 63.8381 54.0214C64.3437 53.4821 64.5965 52.8332 64.5965 52.0747C64.5965 51.3107 64.3437 50.659 63.8381 50.1197C63.3325 49.5803 62.751 49.3107 62.0937 49.3107C61.442 49.3107 60.8605 49.5803 60.3493 50.1197C59.8436 50.659 59.5908 51.3107 59.5908 52.0747C59.5908 52.8332 59.8436 53.4821 60.3493 54.0214Z" fill="#1C1C1C"/>
<path d="M73.0657 47.9286V49.4792H71.1612V56.2124H69.4421V49.4792H68.2286V47.9286H69.4421V46.5466C69.4421 44.8218 70.2454 43.9595 71.8522 43.9595C72.0601 43.9595 72.2651 43.9735 72.4674 44.0016C72.6696 44.0297 72.8157 44.0606 72.9056 44.0943L73.0657 44.128V45.687C72.7792 45.5747 72.4899 45.5157 72.1977 45.5101C71.9 45.5101 71.6528 45.6084 71.4561 45.805C71.2595 46.0016 71.1612 46.2544 71.1612 46.5634V47.9286H73.0657Z" fill="#1C1C1C"/>
<path d="M43.63 76.7584H35.6074C35.6074 76.0112 35.7198 75.3342 35.9445 74.7275C36.1692 74.1151 36.4614 73.6067 36.8209 73.2022C37.1861 72.7977 37.585 72.4269 38.0176 72.0898C38.4558 71.7527 38.8912 71.4465 39.3238 71.1713C39.7563 70.8904 40.1524 70.6151 40.512 70.3454C40.8771 70.0757 41.1721 69.7611 41.3968 69.4016C41.6215 69.0364 41.7339 68.6403 41.7339 68.2134C41.7339 67.601 41.5429 67.1178 41.1609 66.7639C40.7844 66.41 40.2564 66.233 39.5766 66.233C39.2451 66.233 38.9333 66.2948 38.6412 66.4184C38.3546 66.5364 38.1299 66.6796 37.967 66.8482C37.8097 67.0111 37.6692 67.1768 37.5456 67.3454C37.4277 67.5139 37.3462 67.66 37.3013 67.7836L37.2423 67.9605L35.6917 67.2695C35.7142 67.1909 35.7451 67.0897 35.7844 66.9662C35.8293 66.8426 35.9473 66.6235 36.1383 66.3088C36.335 65.9942 36.5625 65.7161 36.8209 65.4746C37.0793 65.233 37.4529 65.0111 37.9417 64.8088C38.4305 64.6066 38.9754 64.5054 39.5766 64.5054C40.762 64.5054 41.7339 64.8622 42.4923 65.5757C43.2508 66.2892 43.63 67.1684 43.63 68.2134C43.63 68.7639 43.5176 69.2752 43.2929 69.7471C43.0682 70.219 42.7817 70.6151 42.4333 70.9353C42.0906 71.2499 41.6946 71.5758 41.2451 71.9128C40.8013 72.2443 40.3687 72.5477 39.9474 72.823C39.526 73.0982 39.1103 73.4297 38.7002 73.8174C38.2957 74.1994 37.9839 74.6039 37.7647 75.0308H43.63V76.7584Z" fill="#1C1C1C"/>
<path d="M46.4025 74.6853L47.9531 75.5533L45.7957 79L44.6749 78.4017L46.4025 74.6853Z" fill="#1C1C1C"/>
<path d="M54.5177 68.7358C55.7256 68.7358 56.7172 69.1179 57.4925 69.8819C58.2678 70.646 58.6554 71.6151 58.6554 72.7893C58.6554 74.0084 58.2594 75.0028 57.4672 75.7724C56.6751 76.5421 55.6329 76.9269 54.3408 76.9269C53.7902 76.9269 53.2677 76.8623 52.7733 76.7331C52.279 76.5983 51.8688 76.441 51.543 76.2612C51.2228 76.0758 50.9447 75.8904 50.7087 75.705C50.4728 75.5196 50.3042 75.3651 50.2031 75.2415L50.0261 75.0308L51.2396 73.8258C51.2621 73.8595 51.3014 73.91 51.3576 73.9775C51.4138 74.0393 51.5402 74.1516 51.7368 74.3145C51.9334 74.4719 52.1413 74.6123 52.3604 74.7359C52.5795 74.8539 52.866 74.9634 53.22 75.0646C53.5795 75.1601 53.9531 75.2078 54.3408 75.2078C55.0318 75.2078 55.6076 74.9775 56.0683 74.5168C56.529 74.0561 56.7593 73.4803 56.7593 72.7893C56.7593 72.0982 56.529 71.5224 56.0683 71.0617C55.6076 70.601 55.0318 70.3707 54.3408 70.3707C53.8352 70.3707 53.3801 70.4634 52.9756 70.6488C52.5767 70.8342 52.3014 71.0196 52.1497 71.205L51.9306 71.4915H50.5486L50.8941 64.674H57.8801V66.4015H52.6217L52.4447 69.2499C52.9054 68.9072 53.5964 68.7358 54.5177 68.7358Z" fill="#1C1C1C"/>
<path d="M68.6668 72.0982L71.6921 68.4746H73.0741V76.7584H71.3466V71.3229L68.6668 74.5168L65.9954 71.3229V76.7584H64.2679V68.4746H65.6499L68.6668 72.0982Z" fill="#1C1C1C"/>
<path d="M83.7765 72.705C83.7765 73.8679 83.3664 74.8623 82.5462 75.6882C81.7315 76.514 80.7624 76.9269 79.6388 76.9269C78.341 76.9269 77.2961 76.4635 76.5039 75.5365C75.7174 74.6039 75.3242 73.2555 75.3242 71.4915C75.3242 69.4802 75.6978 67.9718 76.445 66.9662C77.1922 65.9605 78.2568 65.3425 79.6388 65.1122C80.2512 65.0111 80.7989 64.8819 81.2821 64.7246C81.7709 64.5672 82.1079 64.4352 82.2933 64.3285L82.5714 64.1599L83.3467 65.4577C83.313 65.5027 83.2428 65.5673 83.136 65.6515C83.0349 65.7358 82.6838 65.8875 82.0827 66.1066C81.4871 66.3257 80.7287 66.5111 79.8074 66.6628C79.0152 66.792 78.3776 67.1206 77.8944 67.6487C77.4113 68.1768 77.1275 68.8847 77.0433 69.7724C77.0658 69.7387 77.1051 69.6937 77.1613 69.6375C77.2231 69.5757 77.3438 69.4718 77.5236 69.3257C77.7034 69.174 77.8916 69.042 78.0882 68.9297C78.2905 68.8117 78.5461 68.7077 78.8551 68.6179C79.1697 68.5223 79.4871 68.4746 79.8074 68.4746C80.8523 68.4746 81.7737 68.8931 82.5714 69.7302C83.3748 70.5617 83.7765 71.5533 83.7765 72.705ZM77.9365 70.8005C77.459 71.3117 77.2202 71.9465 77.2202 72.705C77.2202 73.4634 77.459 74.0983 77.9365 74.6095C78.4141 75.1207 78.9787 75.3764 79.6304 75.3764C80.2877 75.3764 80.8551 75.1207 81.3327 74.6095C81.8102 74.0983 82.049 73.4634 82.049 72.705C82.049 71.9465 81.8102 71.3117 81.3327 70.8005C80.8551 70.2836 80.2877 70.0252 79.6304 70.0252C78.9787 70.0252 78.4141 70.2836 77.9365 70.8005Z" fill="#1C1C1C"/>
</svg>
